<mxfile host="app.diagrams.net" agent="Mozilla/5.0 (Windows NT 10.0; Win64; x64) AppleWebKit/537.36 (KHTML, like Gecko) Chrome/109.0.0.0 Safari/537.36" version="24.8.6">
  <diagram id="5NoVyGgUB7cJGF157Z6s" name="Trang-4">
    <mxGraphModel dx="666" dy="534" grid="0" gridSize="10" guides="1" tooltips="1" connect="1" arrows="1" fold="1" page="0" pageScale="1" pageWidth="827" pageHeight="1169" math="0" shadow="0">
      <root>
        <mxCell id="0" />
        <mxCell id="1" parent="0" />
        <mxCell id="TDeqr8NU4t9KzEWTIduC-1" style="edgeStyle=orthogonalEdgeStyle;rounded=0;orthogonalLoop=1;jettySize=auto;html=1;exitX=0.5;exitY=1;exitDx=0;exitDy=0;entryX=0.5;entryY=0;entryDx=0;entryDy=0;" edge="1" parent="1" source="TDeqr8NU4t9KzEWTIduC-2" target="TDeqr8NU4t9KzEWTIduC-4">
          <mxGeometry relative="1" as="geometry" />
        </mxCell>
        <mxCell id="TDeqr8NU4t9KzEWTIduC-2" value="Start" style="ellipse;whiteSpace=wrap;html=1;" vertex="1" parent="1">
          <mxGeometry x="354" y="20" width="120" height="80" as="geometry" />
        </mxCell>
        <mxCell id="TDeqr8NU4t9KzEWTIduC-3" style="edgeStyle=orthogonalEdgeStyle;rounded=0;orthogonalLoop=1;jettySize=auto;html=1;exitX=0.5;exitY=1;exitDx=0;exitDy=0;entryX=0.5;entryY=0;entryDx=0;entryDy=0;" edge="1" parent="1" source="TDeqr8NU4t9KzEWTIduC-4" target="TDeqr8NU4t9KzEWTIduC-5">
          <mxGeometry relative="1" as="geometry" />
        </mxCell>
        <mxCell id="TDeqr8NU4t9KzEWTIduC-4" value="Nhập Score" style="rounded=0;whiteSpace=wrap;html=1;" vertex="1" parent="1">
          <mxGeometry x="354" y="140" width="120" height="60" as="geometry" />
        </mxCell>
        <mxCell id="TDeqr8NU4t9KzEWTIduC-5" value="Score &amp;lt; 4?" style="shape=parallelogram;perimeter=parallelogramPerimeter;whiteSpace=wrap;html=1;fixedSize=1;" vertex="1" parent="1">
          <mxGeometry x="354" y="240" width="120" height="60" as="geometry" />
        </mxCell>
        <mxCell id="TDeqr8NU4t9KzEWTIduC-6" value="Yes" style="edgeStyle=orthogonalEdgeStyle;rounded=0;orthogonalLoop=1;jettySize=auto;html=1;exitX=0.25;exitY=1;exitDx=0;exitDy=0;entryX=0.25;entryY=0;entryDx=0;entryDy=0;" edge="1" parent="1" source="TDeqr8NU4t9KzEWTIduC-8" target="TDeqr8NU4t9KzEWTIduC-14">
          <mxGeometry relative="1" as="geometry" />
        </mxCell>
        <mxCell id="TDeqr8NU4t9KzEWTIduC-7" value="No" style="edgeStyle=orthogonalEdgeStyle;rounded=0;orthogonalLoop=1;jettySize=auto;html=1;exitX=0.5;exitY=1;exitDx=0;exitDy=0;entryX=0.5;entryY=0;entryDx=0;entryDy=0;" edge="1" parent="1" source="TDeqr8NU4t9KzEWTIduC-8" target="TDeqr8NU4t9KzEWTIduC-14">
          <mxGeometry relative="1" as="geometry" />
        </mxCell>
        <mxCell id="TDeqr8NU4t9KzEWTIduC-8" value="4 &amp;lt;= Score &amp;lt;=6" style="shape=parallelogram;perimeter=parallelogramPerimeter;whiteSpace=wrap;html=1;fixedSize=1;" vertex="1" parent="1">
          <mxGeometry x="330" y="440" width="120" height="60" as="geometry" />
        </mxCell>
        <mxCell id="TDeqr8NU4t9KzEWTIduC-9" value="6 &amp;lt; Score &amp;lt;= 8" style="shape=parallelogram;perimeter=parallelogramPerimeter;whiteSpace=wrap;html=1;fixedSize=1;" vertex="1" parent="1">
          <mxGeometry x="370" y="650" width="120" height="60" as="geometry" />
        </mxCell>
        <mxCell id="TDeqr8NU4t9KzEWTIduC-10" value="Yes" style="edgeStyle=orthogonalEdgeStyle;rounded=0;orthogonalLoop=1;jettySize=auto;html=1;exitX=0.25;exitY=1;exitDx=0;exitDy=0;entryX=0.25;entryY=0;entryDx=0;entryDy=0;" edge="1" parent="1" source="TDeqr8NU4t9KzEWTIduC-12" target="TDeqr8NU4t9KzEWTIduC-18">
          <mxGeometry relative="1" as="geometry" />
        </mxCell>
        <mxCell id="TDeqr8NU4t9KzEWTIduC-11" value="No" style="edgeStyle=orthogonalEdgeStyle;rounded=0;orthogonalLoop=1;jettySize=auto;html=1;exitX=0.5;exitY=1;exitDx=0;exitDy=0;entryX=0.5;entryY=0;entryDx=0;entryDy=0;" edge="1" parent="1" source="TDeqr8NU4t9KzEWTIduC-12" target="TDeqr8NU4t9KzEWTIduC-18">
          <mxGeometry relative="1" as="geometry" />
        </mxCell>
        <mxCell id="TDeqr8NU4t9KzEWTIduC-12" value="8 &amp;lt; Score &amp;lt;= 9" style="shape=parallelogram;perimeter=parallelogramPerimeter;whiteSpace=wrap;html=1;fixedSize=1;" vertex="1" parent="1">
          <mxGeometry x="360" y="1050" width="120" height="60" as="geometry" />
        </mxCell>
        <mxCell id="TDeqr8NU4t9KzEWTIduC-13" value="9 &amp;lt; Score &amp;lt;= 10" style="shape=parallelogram;perimeter=parallelogramPerimeter;whiteSpace=wrap;html=1;fixedSize=1;" vertex="1" parent="1">
          <mxGeometry x="370" y="850" width="120" height="60" as="geometry" />
        </mxCell>
        <mxCell id="TDeqr8NU4t9KzEWTIduC-14" value="In trung bình" style="rounded=0;whiteSpace=wrap;html=1;" vertex="1" parent="1">
          <mxGeometry x="330" y="545" width="120" height="60" as="geometry" />
        </mxCell>
        <mxCell id="TDeqr8NU4t9KzEWTIduC-15" value="In khá" style="rounded=0;whiteSpace=wrap;html=1;" vertex="1" parent="1">
          <mxGeometry x="354" y="750" width="120" height="60" as="geometry" />
        </mxCell>
        <mxCell id="TDeqr8NU4t9KzEWTIduC-16" style="edgeStyle=orthogonalEdgeStyle;rounded=0;orthogonalLoop=1;jettySize=auto;html=1;exitX=0.5;exitY=1;exitDx=0;exitDy=0;entryX=0.5;entryY=0;entryDx=0;entryDy=0;" edge="1" parent="1" source="TDeqr8NU4t9KzEWTIduC-17" target="TDeqr8NU4t9KzEWTIduC-12">
          <mxGeometry relative="1" as="geometry" />
        </mxCell>
        <mxCell id="TDeqr8NU4t9KzEWTIduC-17" value="In giỏi" style="rounded=0;whiteSpace=wrap;html=1;" vertex="1" parent="1">
          <mxGeometry x="360" y="950" width="120" height="60" as="geometry" />
        </mxCell>
        <mxCell id="TDeqr8NU4t9KzEWTIduC-18" value="In xuất sắc" style="rounded=0;whiteSpace=wrap;html=1;" vertex="1" parent="1">
          <mxGeometry x="360" y="1169" width="120" height="60" as="geometry" />
        </mxCell>
        <mxCell id="TDeqr8NU4t9KzEWTIduC-19" value="In không đạt" style="rounded=0;whiteSpace=wrap;html=1;" vertex="1" parent="1">
          <mxGeometry x="340" y="340" width="120" height="60" as="geometry" />
        </mxCell>
        <mxCell id="TDeqr8NU4t9KzEWTIduC-20" value="Yes" style="edgeStyle=orthogonalEdgeStyle;rounded=0;orthogonalLoop=1;jettySize=auto;html=1;exitX=0.25;exitY=1;exitDx=0;exitDy=0;entryX=0.417;entryY=-0.017;entryDx=0;entryDy=0;entryPerimeter=0;" edge="1" parent="1" source="TDeqr8NU4t9KzEWTIduC-5" target="TDeqr8NU4t9KzEWTIduC-19">
          <mxGeometry relative="1" as="geometry" />
        </mxCell>
        <mxCell id="TDeqr8NU4t9KzEWTIduC-21" value="No" style="edgeStyle=orthogonalEdgeStyle;rounded=0;orthogonalLoop=1;jettySize=auto;html=1;exitX=0.5;exitY=1;exitDx=0;exitDy=0;entryX=0.667;entryY=-0.033;entryDx=0;entryDy=0;entryPerimeter=0;" edge="1" parent="1" source="TDeqr8NU4t9KzEWTIduC-5" target="TDeqr8NU4t9KzEWTIduC-19">
          <mxGeometry relative="1" as="geometry" />
        </mxCell>
        <mxCell id="TDeqr8NU4t9KzEWTIduC-22" value="Yes" style="edgeStyle=orthogonalEdgeStyle;rounded=0;orthogonalLoop=1;jettySize=auto;html=1;exitX=0.25;exitY=1;exitDx=0;exitDy=0;entryX=0.367;entryY=0.083;entryDx=0;entryDy=0;entryPerimeter=0;" edge="1" parent="1" source="TDeqr8NU4t9KzEWTIduC-9" target="TDeqr8NU4t9KzEWTIduC-15">
          <mxGeometry relative="1" as="geometry" />
        </mxCell>
        <mxCell id="TDeqr8NU4t9KzEWTIduC-23" value="No" style="edgeStyle=orthogonalEdgeStyle;rounded=0;orthogonalLoop=1;jettySize=auto;html=1;exitX=0.5;exitY=1;exitDx=0;exitDy=0;entryX=0.617;entryY=0.017;entryDx=0;entryDy=0;entryPerimeter=0;" edge="1" parent="1" source="TDeqr8NU4t9KzEWTIduC-9" target="TDeqr8NU4t9KzEWTIduC-15">
          <mxGeometry relative="1" as="geometry" />
        </mxCell>
        <mxCell id="TDeqr8NU4t9KzEWTIduC-24" value="Yes" style="edgeStyle=orthogonalEdgeStyle;rounded=0;orthogonalLoop=1;jettySize=auto;html=1;exitX=0.25;exitY=1;exitDx=0;exitDy=0;entryX=0.417;entryY=-0.033;entryDx=0;entryDy=0;entryPerimeter=0;" edge="1" parent="1" source="TDeqr8NU4t9KzEWTIduC-13" target="TDeqr8NU4t9KzEWTIduC-17">
          <mxGeometry relative="1" as="geometry" />
        </mxCell>
        <mxCell id="TDeqr8NU4t9KzEWTIduC-25" value="No" style="edgeStyle=orthogonalEdgeStyle;rounded=0;orthogonalLoop=1;jettySize=auto;html=1;exitX=0.5;exitY=1;exitDx=0;exitDy=0;entryX=0.667;entryY=-0.05;entryDx=0;entryDy=0;entryPerimeter=0;" edge="1" parent="1" source="TDeqr8NU4t9KzEWTIduC-13" target="TDeqr8NU4t9KzEWTIduC-17">
          <mxGeometry relative="1" as="geometry" />
        </mxCell>
        <mxCell id="TDeqr8NU4t9KzEWTIduC-26" style="edgeStyle=orthogonalEdgeStyle;rounded=0;orthogonalLoop=1;jettySize=auto;html=1;exitX=0.75;exitY=1;exitDx=0;exitDy=0;entryX=0.417;entryY=0;entryDx=0;entryDy=0;entryPerimeter=0;" edge="1" parent="1" source="TDeqr8NU4t9KzEWTIduC-14" target="TDeqr8NU4t9KzEWTIduC-9">
          <mxGeometry relative="1" as="geometry" />
        </mxCell>
        <mxCell id="TDeqr8NU4t9KzEWTIduC-27" style="edgeStyle=orthogonalEdgeStyle;rounded=0;orthogonalLoop=1;jettySize=auto;html=1;exitX=0.5;exitY=1;exitDx=0;exitDy=0;entryX=0.358;entryY=-0.05;entryDx=0;entryDy=0;entryPerimeter=0;" edge="1" parent="1" source="TDeqr8NU4t9KzEWTIduC-15" target="TDeqr8NU4t9KzEWTIduC-13">
          <mxGeometry relative="1" as="geometry" />
        </mxCell>
        <mxCell id="TDeqr8NU4t9KzEWTIduC-29" style="edgeStyle=orthogonalEdgeStyle;rounded=0;orthogonalLoop=1;jettySize=auto;html=1;exitX=0.5;exitY=1;exitDx=0;exitDy=0;entryX=0.625;entryY=-0.025;entryDx=0;entryDy=0;entryPerimeter=0;" edge="1" parent="1" source="TDeqr8NU4t9KzEWTIduC-18">
          <mxGeometry relative="1" as="geometry">
            <mxPoint x="424" y="1268" as="targetPoint" />
          </mxGeometry>
        </mxCell>
        <mxCell id="TDeqr8NU4t9KzEWTIduC-30" style="edgeStyle=orthogonalEdgeStyle;rounded=0;orthogonalLoop=1;jettySize=auto;html=1;exitX=0.5;exitY=1;exitDx=0;exitDy=0;entryX=0.583;entryY=0.033;entryDx=0;entryDy=0;entryPerimeter=0;" edge="1" parent="1" source="TDeqr8NU4t9KzEWTIduC-19" target="TDeqr8NU4t9KzEWTIduC-8">
          <mxGeometry relative="1" as="geometry" />
        </mxCell>
        <mxCell id="TDeqr8NU4t9KzEWTIduC-31" value="END" style="ellipse;whiteSpace=wrap;html=1;" vertex="1" parent="1">
          <mxGeometry x="368" y="1269" width="120" height="80" as="geometry" />
        </mxCell>
      </root>
    </mxGraphModel>
  </diagram>
</mxfile>
